<svg width="468" height="183" viewBox="0 0 468 183" fill="none" xmlns="http://www.w3.org/2000/svg">
<path d="M89.736 162.768L83.616 153.36H86.832L91.08 160.32L95.328 153.36H98.52L92.424 162.816V171H89.736V162.768ZM103.285 171.24C102.149 171.24 101.141 170.984 100.261 170.472C99.3813 169.96 98.7013 169.264 98.2213 168.384C97.7413 167.504 97.5013 166.528 97.5013 165.456C97.5013 164.4 97.7333 163.432 98.1973 162.552C98.6773 161.672 99.3573 160.976 100.237 160.464C101.117 159.952 102.133 159.696 103.285 159.696C104.437 159.696 105.445 159.952 106.309 160.464C107.189 160.976 107.861 161.672 108.325 162.552C108.805 163.432 109.045 164.4 109.045 165.456C109.045 166.528 108.805 167.504 108.325 168.384C107.845 169.264 107.165 169.96 106.285 170.472C105.421 170.984 104.421 171.24 103.285 171.24ZM103.357 169.128C104.285 169.128 105.013 168.784 105.541 168.096C106.085 167.408 106.357 166.544 106.357 165.504C106.357 164.464 106.069 163.592 105.493 162.888C104.917 162.168 104.157 161.808 103.213 161.808C102.301 161.808 101.565 162.16 101.005 162.864C100.461 163.568 100.189 164.448 100.189 165.504C100.189 166.528 100.485 167.392 101.077 168.096C101.669 168.784 102.429 169.128 103.357 169.128ZM115.629 171.24C114.109 171.24 113.061 170.792 112.485 169.896C111.925 169 111.645 167.752 111.645 166.152V159.984H114.237V165.504C114.237 166.416 114.285 167.128 114.381 167.64C114.493 168.136 114.701 168.504 115.005 168.744C115.325 168.984 115.797 169.104 116.421 169.104C116.869 169.104 117.301 168.976 117.717 168.72C118.133 168.464 118.469 168.12 118.725 167.688C118.997 167.24 119.133 166.752 119.133 166.224V159.984H121.701V171H119.589L119.301 169.392C118.901 170.016 118.397 170.48 117.789 170.784C117.197 171.088 116.477 171.24 115.629 171.24ZM125.077 159.984H127.669V162.144C127.925 161.408 128.341 160.816 128.917 160.368C129.493 159.92 130.149 159.696 130.885 159.696C131.397 159.696 131.749 159.744 131.941 159.84L131.581 162.456C131.437 162.36 131.125 162.312 130.645 162.312C129.893 162.312 129.205 162.552 128.581 163.032C127.973 163.512 127.669 164.28 127.669 165.336V171H125.077V159.984ZM146.281 153.336L154.777 171H151.681L150.169 167.544H142.081L140.569 171H137.569L146.017 153.336H146.281ZM145.081 160.848L143.161 165.12H149.113L147.217 160.872L146.185 158.448H146.137L145.081 160.848ZM156.567 153.36H159.255V171H156.567V153.36ZM177.208 171.168C175.384 171.168 173.8 170.76 172.456 169.944C171.128 169.128 170.112 168.04 169.408 166.68C168.704 165.304 168.352 163.792 168.352 162.144C168.352 160.4 168.728 158.84 169.48 157.464C170.248 156.088 171.32 155.016 172.696 154.248C174.072 153.464 175.632 153.072 177.376 153.072C178.16 153.072 178.888 153.16 179.56 153.336C180.248 153.496 180.816 153.688 181.264 153.912C181.712 154.12 182.008 154.296 182.152 154.44L180.976 156.84C180 155.976 178.728 155.544 177.16 155.544C176.056 155.544 175.056 155.816 174.16 156.36C173.264 156.904 172.56 157.68 172.048 158.688C171.536 159.696 171.28 160.864 171.28 162.192C171.28 163.408 171.504 164.512 171.952 165.504C172.416 166.496 173.088 167.28 173.968 167.856C174.848 168.432 175.896 168.72 177.112 168.72C178.52 168.72 179.88 168.32 181.192 167.52L181.984 169.8C181.632 170.12 180.984 170.432 180.04 170.736C179.112 171.024 178.168 171.168 177.208 171.168ZM184.538 159.984H187.13V162.144C187.386 161.408 187.802 160.816 188.378 160.368C188.954 159.92 189.61 159.696 190.346 159.696C190.858 159.696 191.21 159.744 191.402 159.84L191.042 162.456C190.898 162.36 190.586 162.312 190.106 162.312C189.354 162.312 188.666 162.552 188.042 163.032C187.434 163.512 187.13 164.28 187.13 165.336V171H184.538V159.984ZM198.443 171.24C197.131 171.24 196.035 170.984 195.155 170.472C194.275 169.944 193.627 169.248 193.211 168.384C192.795 167.504 192.587 166.544 192.587 165.504C192.587 164.336 192.827 163.312 193.307 162.432C193.803 161.552 194.483 160.88 195.347 160.416C196.211 159.936 197.187 159.696 198.275 159.696C199.971 159.696 201.227 160.168 202.043 161.112C202.875 162.04 203.291 163.352 203.291 165.048C203.291 165.48 203.267 165.928 203.219 166.392H195.299C195.475 167.368 195.819 168.072 196.331 168.504C196.859 168.936 197.587 169.152 198.515 169.152C199.283 169.152 199.915 169.088 200.411 168.96C200.907 168.832 201.363 168.656 201.779 168.432L202.571 170.28C202.171 170.536 201.627 170.76 200.939 170.952C200.251 171.144 199.419 171.24 198.443 171.24ZM200.771 164.592C200.787 163.6 200.571 162.904 200.123 162.504C199.675 162.088 199.035 161.88 198.203 161.88C196.523 161.88 195.555 162.784 195.299 164.592H200.771ZM210.881 171.24C209.889 171.24 208.969 171.008 208.121 170.544C207.289 170.064 206.617 169.392 206.105 168.528C205.609 167.648 205.361 166.624 205.361 165.456C205.361 164.304 205.577 163.296 206.009 162.432C206.457 161.568 207.089 160.896 207.905 160.416C208.721 159.936 209.681 159.696 210.785 159.696C211.425 159.696 212.025 159.808 212.585 160.032C213.145 160.256 213.617 160.536 214.001 160.872C214.385 161.192 214.641 161.512 214.769 161.832L214.817 159.984H217.289V171H214.841L214.793 169.056C214.521 169.632 214.025 170.144 213.305 170.592C212.585 171.024 211.777 171.24 210.881 171.24ZM211.313 169.08C212.225 169.08 212.993 168.768 213.617 168.144C214.241 167.504 214.553 166.672 214.553 165.648V165.48C214.553 164.792 214.409 164.176 214.121 163.632C213.833 163.088 213.441 162.664 212.945 162.36C212.449 162.056 211.905 161.904 211.313 161.904C210.289 161.904 209.497 162.24 208.937 162.912C208.377 163.568 208.097 164.424 208.097 165.48C208.097 166.552 208.369 167.424 208.913 168.096C209.473 168.752 210.273 169.08 211.313 169.08ZM221.734 162.096H219.79V159.984H221.734V155.496L224.35 154.92V159.984H226.894V162.096H224.35V171H221.734V162.096ZM229.193 159.984H231.881V171H229.193V159.984ZM230.513 157.92C230.017 157.92 229.601 157.752 229.265 157.416C228.929 157.08 228.761 156.664 228.761 156.168C228.761 155.72 228.929 155.336 229.265 155.016C229.601 154.696 230.017 154.536 230.513 154.536C230.993 154.536 231.401 154.696 231.737 155.016C232.073 155.336 232.241 155.72 232.241 156.168C232.241 156.664 232.073 157.08 231.737 157.416C231.417 157.752 231.009 157.92 230.513 157.92ZM233.718 159.984H236.67L239.046 164.952L239.814 166.944L240.582 164.952L242.934 159.984H245.814L240.03 171H239.526L233.718 159.984ZM252.396 171.24C251.084 171.24 249.988 170.984 249.108 170.472C248.228 169.944 247.58 169.248 247.164 168.384C246.748 167.504 246.54 166.544 246.54 165.504C246.54 164.336 246.78 163.312 247.26 162.432C247.756 161.552 248.436 160.88 249.3 160.416C250.164 159.936 251.14 159.696 252.228 159.696C253.924 159.696 255.18 160.168 255.996 161.112C256.828 162.04 257.244 163.352 257.244 165.048C257.244 165.48 257.22 165.928 257.172 166.392H249.252C249.428 167.368 249.772 168.072 250.284 168.504C250.812 168.936 251.54 169.152 252.468 169.152C253.236 169.152 253.868 169.088 254.364 168.96C254.86 168.832 255.316 168.656 255.732 168.432L256.524 170.28C256.124 170.536 255.58 170.76 254.892 170.952C254.204 171.144 253.372 171.24 252.396 171.24ZM254.724 164.592C254.74 163.6 254.524 162.904 254.076 162.504C253.628 162.088 252.988 161.88 252.156 161.88C250.476 161.88 249.508 162.784 249.252 164.592H254.724ZM266.013 153.36H269.901C272.093 153.36 273.693 153.832 274.701 154.776C275.725 155.704 276.237 156.984 276.237 158.616C276.237 160.504 275.685 161.952 274.581 162.96C273.477 163.968 271.837 164.472 269.661 164.472H268.725V171H266.013V153.36ZM269.733 162.096C271.141 162.096 272.125 161.784 272.685 161.16C273.245 160.536 273.525 159.784 273.525 158.904C273.525 157.96 273.253 157.192 272.709 156.6C272.165 156.008 271.253 155.712 269.973 155.712H268.725V162.096H269.733ZM283.443 171.24C282.451 171.24 281.531 171.008 280.683 170.544C279.851 170.064 279.179 169.392 278.667 168.528C278.171 167.648 277.923 166.624 277.923 165.456C277.923 164.304 278.139 163.296 278.571 162.432C279.019 161.568 279.651 160.896 280.467 160.416C281.283 159.936 282.243 159.696 283.347 159.696C283.987 159.696 284.587 159.808 285.147 160.032C285.707 160.256 286.179 160.536 286.563 160.872C286.947 161.192 287.203 161.512 287.331 161.832L287.379 159.984H289.851V171H287.403L287.355 169.056C287.083 169.632 286.587 170.144 285.867 170.592C285.147 171.024 284.339 171.24 283.443 171.24ZM283.875 169.08C284.787 169.08 285.555 168.768 286.179 168.144C286.803 167.504 287.115 166.672 287.115 165.648V165.48C287.115 164.792 286.971 164.176 286.683 163.632C286.395 163.088 286.003 162.664 285.507 162.36C285.011 162.056 284.467 161.904 283.875 161.904C282.851 161.904 282.059 162.24 281.499 162.912C280.939 163.568 280.659 164.424 280.659 165.48C280.659 166.552 280.931 167.424 281.475 168.096C282.035 168.752 282.835 169.08 283.875 169.08ZM293.265 159.984H295.857V162.144C296.113 161.408 296.529 160.816 297.105 160.368C297.681 159.92 298.337 159.696 299.073 159.696C299.585 159.696 299.937 159.744 300.129 159.84L299.769 162.456C299.625 162.36 299.313 162.312 298.833 162.312C298.081 162.312 297.393 162.552 296.769 163.032C296.161 163.512 295.857 164.28 295.857 165.336V171H293.265V159.984ZM302.922 162.096H300.978V159.984H302.922V155.496L305.538 154.92V159.984H308.082V162.096H305.538V171H302.922V162.096ZM310.188 159.984H312.732L312.756 162C313.06 161.328 313.54 160.776 314.196 160.344C314.852 159.912 315.62 159.696 316.5 159.696C317.636 159.696 318.508 159.936 319.116 160.416C319.724 160.88 320.132 161.536 320.34 162.384C320.548 163.232 320.652 164.336 320.652 165.696V171H318.06V165.768C318.06 164.376 317.924 163.376 317.652 162.768C317.38 162.144 316.82 161.832 315.972 161.832C315.492 161.832 315.004 161.984 314.508 162.288C314.012 162.576 313.596 163 313.26 163.56C312.94 164.12 312.78 164.776 312.78 165.528V171H310.188V159.984ZM329.201 171.24C327.889 171.24 326.793 170.984 325.913 170.472C325.033 169.944 324.385 169.248 323.969 168.384C323.553 167.504 323.345 166.544 323.345 165.504C323.345 164.336 323.585 163.312 324.065 162.432C324.561 161.552 325.241 160.88 326.105 160.416C326.969 159.936 327.945 159.696 329.033 159.696C330.729 159.696 331.985 160.168 332.801 161.112C333.633 162.04 334.049 163.352 334.049 165.048C334.049 165.48 334.025 165.928 333.977 166.392H326.057C326.233 167.368 326.577 168.072 327.089 168.504C327.617 168.936 328.345 169.152 329.273 169.152C330.041 169.152 330.673 169.088 331.169 168.96C331.665 168.832 332.121 168.656 332.537 168.432L333.329 170.28C332.929 170.536 332.385 170.76 331.697 170.952C331.009 171.144 330.177 171.24 329.201 171.24ZM331.529 164.592C331.545 163.6 331.329 162.904 330.881 162.504C330.433 162.088 329.793 161.88 328.961 161.88C327.281 161.88 326.313 162.784 326.057 164.592H331.529ZM336.695 159.984H339.287V162.144C339.543 161.408 339.959 160.816 340.535 160.368C341.111 159.92 341.766 159.696 342.503 159.696C343.015 159.696 343.367 159.744 343.559 159.84L343.199 162.456C343.055 162.36 342.743 162.312 342.263 162.312C341.511 162.312 340.823 162.552 340.199 163.032C339.591 163.512 339.287 164.28 339.287 165.336V171H336.695V159.984Z" fill="#515253"/>
<path d="M401.513 167.192C399.704 169.988 398.045 171.594 396.28 174.044C398.305 172.821 400.628 171.775 402.473 170.274C404.989 168.228 405.549 165.28 407.139 162.585C409.237 159.027 411.48 155.132 413.955 151.882C415.565 149.86 417.079 147.822 418.633 145.828C420.186 143.834 420.923 142.444 422.894 140.841C428.166 136.554 433.305 131.75 439.157 128.323C443.749 125.634 448.419 123.184 453.195 120.873C453.451 120.749 463.521 114.397 460.961 116.215C460.146 117.497 456.468 121.82 453.812 124.401C450.492 127.628 445.11 131.591 440.5 133.587C437.306 134.97 432.914 135.67 430.375 138.22C429.551 139.048 428.862 139.812 429.311 140.998C429.526 141.567 429.686 141.694 428.938 141.864C427.727 142.139 426.447 142.31 426.295 143.844C426.196 144.844 426.732 145.126 425.78 145.837C421.98 148.677 415.473 151.951 414.958 157.38C414.836 158.669 415.028 160.721 415.902 158.525C416.728 156.448 417.729 154.663 419.556 153.317C421.803 151.662 424.369 150.798 426.831 149.595C428.897 148.586 430.683 147.133 432.625 145.91C433.843 145.144 435.37 144.803 436.021 143.374C436.36 142.631 435.77 142.768 435.282 142.948C433.999 143.422 432.439 144.041 431.171 143.38C430.214 142.88 429.938 142.806 431.164 142.078C432.873 141.063 434.938 140.721 436.792 140.09C437.733 139.769 440.253 139.175 441.018 138.242C441.338 137.502 441.261 137.283 440.91 137.247C440.438 137.707 438.513 138.824 437.126 138.554C436.151 138.365 435.38 138.316 434.439 138.038C433.854 137.865 434.028 138.021 434.589 137.831C439.731 136.093 444.374 133.28 449.157 130.737C451.963 129.246 454.946 125.301 457.411 122.691C458.66 121.368 459.585 120.697 460.842 119.475C462.502 117.862 463.395 116.801 464.539 115.573C465.549 114.487 465.896 114.047 466.619 112.932C467.534 111.521 467.991 111.289 467.991 111.289C467.991 111.289 466.82 110.98 465.596 111.449C462.808 112.76 460.761 113.531 458.386 114.937C453.604 117.767 448.839 119.91 444.141 122.509C442.329 123.512 440.357 124.796 438.161 126.354C435.965 127.912 433.817 129.151 431.8 130.593C422.586 136.336 415.485 144.138 409.002 153.983C406.25 158.162 404.223 162.76 401.513 167.192Z" fill="#0A1255"/>
<path d="M366.636 169.227C370.111 167.113 373.51 163.264 377.669 162.36C385.113 161.884 384.323 165.256 385.692 169.32C387.479 174.631 391.789 175.573 398.1 173.22" stroke="#0A1255" stroke-linecap="round"/>
<path d="M43.5 50.05C35.6 59.95 29.9 69.85 26.4 79.75H26.55C40.45 79.75 48.4 79.8 50.4 79.9C52.5 79.9 53.65 79.8 53.85 79.6C54.05 79.4 54.2 79.15 54.3 78.85C52.6 66.55 51.25 58.2 50.25 53.8C49.25 49.3 48.25 47.05 47.25 47.05C46.25 47.05 45 48.05 43.5 50.05ZM30.15 120.7L33.45 120.1C34.45 120.1 34.95 120.65 34.95 121.75C34.95 125.25 34.25 128.2 32.85 130.6C31.45 133 29.7 134.7 27.6 135.7C24.2 137.4 21.3 138.25 18.9 138.25C14.3 138.25 10.85 136.55 8.55 133.15C6.25 129.65 5.1 124.45 5.1 117.55C5.1 110.55 7 101.5 10.8 90.4H2.1C1 90.4 0.45 89.85 0.45 88.75C0.45 87.65 1.3 85.9 3 83.5C4.7 81 6.5 79.75 8.4 79.75H15.15C22.25 63.95 30.6 50.3 40.2 38.8C42.7 35.8 45.75 33 49.35 30.4C53.05 27.8 55.9 26.5 57.9 26.5C59.9 26.5 61.4 27.4 62.4 29.2C65 33.4 68.05 48.75 71.55 75.25C72.75 86.65 74.8 98.45 77.7 110.65C80.7 122.75 83.45 129.8 85.95 131.8C86.55 132.2 86.85 132.7 86.85 133.3C86.85 134.8 84.7 136.2 80.4 137.5C76.2 138.8 72.95 139.45 70.65 139.45C68.45 139.45 66.75 139.15 65.55 138.55C64.35 138.05 63.6 137.5 63.3 136.9C61.5 133 59.7 123.7 57.9 109L57 101.95C56.6 97.25 56.2 93.7 55.8 91.3L54.75 90.55L23.4 90.4C22.2 95.5 21.6 99.95 21.6 103.75C21.6 107.55 21.7 110.35 21.9 112.15C22.2 113.85 23.05 115.7 24.45 117.7C25.85 119.7 27.75 120.7 30.15 120.7ZM122.886 87.4C122.486 87.8 122.286 88.25 122.286 88.75C122.286 89.15 123.186 89.55 124.986 89.95C126.886 90.35 128.936 91.45 131.136 93.25C133.336 95.05 134.986 97 136.086 99.1C138.186 103.2 139.336 106.8 139.536 109.9L139.686 111.85C140.186 123.55 142.336 131.55 146.136 135.85C146.636 136.55 146.886 137.05 146.886 137.35C146.886 138.45 145.486 139 142.686 139C134.286 139 128.936 137.25 126.636 133.75C125.436 132.35 124.836 128 124.836 120.7V116.95C124.836 107.65 123.686 101.2 121.386 97.6C120.186 95.9 118.686 95.05 116.886 95.05C115.186 95.05 113.386 96.6 111.486 99.7C109.586 102.7 108.636 105.25 108.636 107.35C108.636 115.75 108.836 121.6 109.236 124.9C109.636 128.2 109.836 129.9 109.836 130C109.836 132.9 107.836 135.15 103.836 136.75C99.9363 138.35 96.2363 139.15 92.7363 139.15C91.4363 139.15 90.7863 138.35 90.7863 136.75V136.15C93.1863 123.85 94.3863 104.45 94.3863 77.95C94.3863 69.25 94.1863 61.9 93.7863 55.9L93.4863 52.9C93.2863 50.1 92.6863 47.7 91.6863 45.7C90.7863 43.7 89.8863 42.4 88.9863 41.8L87.7863 41.05C87.0863 40.65 86.7363 40.2 86.7363 39.7C86.7363 38.1 89.1363 36.3 93.9363 34.3C98.7363 32.3 102.886 31.3 106.386 31.3C107.986 31.4 108.836 32 108.936 33.1C109.436 37.1 109.686 45.35 109.686 57.85C109.686 70.25 109.386 80.15 108.786 87.55C108.786 88.75 108.986 89.35 109.386 89.35C109.786 89.35 110.386 88.8 111.186 87.7C112.086 86.5 113.586 84.65 115.686 82.15C117.886 79.65 120.786 76.75 124.386 73.45C128.086 70.15 131.036 68.5 133.236 68.5C135.536 68.5 137.786 69.05 139.986 70.15C142.186 71.25 143.286 72.3 143.286 73.3L141.636 74.35C135.936 76.45 129.686 80.8 122.886 87.4ZM195.266 115.45C195.266 119.75 194.416 123.5 192.716 126.7C191.116 129.9 189.266 132.25 187.166 133.75C185.066 135.25 182.566 136.45 179.666 137.35C175.866 138.55 172.416 139.15 169.316 139.15C162.816 139.15 157.416 137.9 153.116 135.4C148.816 132.8 146.666 128.7 146.666 123.1C146.666 119.8 147.566 117.1 149.366 115C152.166 111.9 155.516 110.35 159.416 110.35C160.616 110.35 161.216 110.9 161.216 112C161.216 112.1 160.966 112.9 160.466 114.4C160.066 115.8 159.866 117.6 159.866 119.8C159.866 122 160.716 123.95 162.416 125.65C164.216 127.35 166.366 128.2 168.866 128.2C171.366 128.2 173.366 127.8 174.866 127C176.366 126.1 177.416 125 178.016 123.7C178.916 121.9 179.366 120.2 179.366 118.6C179.366 115.7 177.916 113.2 175.016 111.1C172.116 109 168.916 107.35 165.416 106.15C161.916 104.95 158.716 102.95 155.816 100.15C152.916 97.35 151.466 93.85 151.466 89.65C151.466 82.45 153.716 77.05 158.216 73.45C162.816 69.85 169.016 68.05 176.816 68.05C180.216 68.05 183.766 68.55 187.466 69.55C191.266 70.45 193.166 72.05 193.166 74.35C193.166 76.55 192.766 78.6 191.966 80.5C191.266 82.4 190.366 83.35 189.266 83.35C188.666 83.35 188.266 83.15 188.066 82.75C187.866 82.25 187.516 81.7 187.016 81.1C186.516 80.5 185.316 79.75 183.416 78.85C181.516 77.85 179.866 77.35 178.466 77.35C177.166 77.35 176.266 77.4 175.766 77.5C175.366 77.5 174.616 77.65 173.516 77.95C172.416 78.15 171.416 78.5 170.516 79C168.216 80.3 167.066 82.2 167.066 84.7C167.066 86.3 167.416 87.5 168.116 88.3C168.816 89 169.366 89.55 169.766 89.95C170.166 90.35 170.866 90.85 171.866 91.45C172.866 91.95 173.566 92.3 173.966 92.5C174.366 92.7 175.266 93.15 176.666 93.85C178.066 94.45 178.966 94.85 179.366 95.05C189.966 100.05 195.266 106.85 195.266 115.45ZM220.579 55.45L220.429 70C220.429 70.6 220.629 70.9 221.029 70.9C221.429 70.9 221.829 70.75 222.229 70.45C224.729 68.75 228.679 67.9 234.079 67.9C243.179 67.9 249.479 71 252.979 77.2C254.279 79.5 254.929 82.55 254.929 86.35C254.929 90.15 254.679 95.4 254.179 102.1C253.779 108.8 253.579 113.55 253.579 116.35C253.579 126.15 254.979 132.65 257.779 135.85C258.279 136.35 258.529 136.85 258.529 137.35C258.529 138.35 256.379 138.85 252.079 138.85C240.479 138.85 234.679 133.45 234.679 122.65C234.679 118.45 235.679 112.55 237.679 104.95C239.679 97.35 240.679 91.75 240.679 88.15C240.679 84.55 239.829 81.8 238.129 79.9C236.429 77.9 234.079 76.9 231.079 76.9C228.079 76.9 225.679 77.55 223.879 78.85C222.179 80.15 221.129 81.5 220.729 82.9L220.279 84.85C220.179 86.75 220.129 92.8 220.129 103C220.129 113.2 220.379 119.85 220.879 122.95C221.379 125.95 221.629 127.65 221.629 128.05C221.629 130.95 219.679 133.55 215.779 135.85C211.879 138.05 208.029 139.15 204.229 139.15C202.829 139.15 202.129 138.35 202.129 136.75L202.429 133.9C204.629 117.1 205.729 98.9 205.729 79.3C205.729 71.7 205.429 64 204.829 56.2L204.679 52.9C204.479 50.1 203.879 47.7 202.879 45.7C201.979 43.7 201.129 42.4 200.329 41.8L198.979 41.05C198.279 40.65 197.929 40.2 197.929 39.7C197.929 38.3 200.279 36.6 204.979 34.6C209.679 32.5 213.279 31.45 215.779 31.45C218.379 31.45 219.779 32 219.979 33.1C220.379 38.2 220.579 45.65 220.579 55.45ZM313.145 91L312.845 110.2C312.845 123.5 314.295 131.5 317.195 134.2C317.595 134.6 317.795 135.05 317.795 135.55C317.795 137.05 314.545 137.8 308.045 137.8C301.645 137.8 298.245 135.9 297.845 132.1C297.745 131.2 297.695 129.35 297.695 126.55L298.295 102.55C298.295 101.85 297.895 101.5 297.095 101.5C292.295 101.5 287.795 102.85 283.595 105.55C279.395 108.25 277.295 111.7 277.295 115.9C277.295 118.1 277.895 119.95 279.095 121.45C280.295 122.95 281.745 123.7 283.445 123.7C285.245 123.7 286.695 123.35 287.795 122.65C288.995 121.95 289.695 121.55 289.895 121.45C291.595 121.65 292.445 123.45 292.445 126.85C292.445 130.15 290.895 132.85 287.795 134.95C284.695 136.95 281.445 137.95 278.045 137.95C274.645 137.95 271.695 137.35 269.195 136.15C266.795 134.95 265.045 133.6 263.945 132.1C262.845 130.6 261.945 128.9 261.245 127C260.545 124.7 260.195 122.7 260.195 121C260.195 114 262.395 108.4 266.795 104.2C271.195 100 276.845 97 283.745 95.2C292.845 93.4 297.595 91.75 297.995 90.25C298.295 89.15 298.445 87.3 298.445 84.7C298.445 79.4 295.745 76.75 290.345 76.75C288.045 76.75 285.995 77.5 284.195 79C282.395 80.4 281.495 82.2 281.495 84.4L282.395 88C282.195 89.7 280.395 90.7 276.995 91L275.345 91.15C272.345 91.15 269.945 90.4 268.145 88.9C266.445 87.4 265.595 85.4 265.595 82.9C265.595 81.3 266.095 79.55 267.095 77.65C268.195 75.65 269.545 74.05 271.145 72.85C272.745 71.65 275.195 70.6 278.495 69.7C281.895 68.7 285.145 68.2 288.245 68.2C291.345 68.2 293.745 68.3 295.445 68.5C297.145 68.7 299.445 69.2 302.345 70C305.345 70.7 307.795 72.1 309.695 74.2C311.695 76.3 312.745 78.55 312.845 80.95C313.045 83.25 313.145 86.6 313.145 91ZM367.975 95.8L368.575 101.05C368.575 102.95 366.775 103.9 363.175 103.9C355.875 103.9 352.225 101.15 352.225 95.65C352.225 94.35 352.575 92.55 353.275 90.25C353.975 87.95 354.325 85.95 354.325 84.25C354.325 82.55 353.825 81.1 352.825 79.9C351.825 78.6 350.375 77.95 348.475 77.95C346.575 77.95 344.925 78.65 343.525 80.05C342.225 81.35 341.425 82.7 341.125 84.1L340.525 86.2C339.925 89.3 339.625 94.5 339.625 101.8C339.625 109 339.725 114.7 339.925 118.9C340.125 123 340.325 125.85 340.525 127.45C340.725 128.95 340.825 129.85 340.825 130.15C340.825 132.65 339.275 134.65 336.175 136.15C333.075 137.75 329.975 138.55 326.875 138.55C323.775 138.55 322.225 137.9 322.225 136.6L322.975 131.95C324.375 123.25 325.075 111.9 325.075 97.9C325.075 83.9 324.575 74.4 323.575 69.4C323.575 68.2 324.625 67.6 326.725 67.6C332.125 67.6 335.725 69.45 337.525 73.15C337.625 73.55 337.775 73.75 337.975 73.75C338.275 73.75 338.975 73.3 340.075 72.4C343.375 69.7 347.275 68.35 351.775 68.35C354.575 68.35 357.375 68.9 360.175 70C365.875 72.3 368.725 77.1 368.725 84.4L367.975 95.8ZM422.129 91L421.829 110.2C421.829 123.5 423.279 131.5 426.179 134.2C426.579 134.6 426.779 135.05 426.779 135.55C426.779 137.05 423.529 137.8 417.029 137.8C410.629 137.8 407.229 135.9 406.829 132.1C406.729 131.2 406.679 129.35 406.679 126.55L407.279 102.55C407.279 101.85 406.879 101.5 406.079 101.5C401.279 101.5 396.779 102.85 392.579 105.55C388.379 108.25 386.279 111.7 386.279 115.9C386.279 118.1 386.879 119.95 388.079 121.45C389.279 122.95 390.729 123.7 392.429 123.7C394.229 123.7 395.679 123.35 396.779 122.65C397.979 121.95 398.679 121.55 398.879 121.45C400.579 121.65 401.429 123.45 401.429 126.85C401.429 130.15 399.879 132.85 396.779 134.95C393.679 136.95 390.429 137.95 387.029 137.95C383.629 137.95 380.679 137.35 378.179 136.15C375.779 134.95 374.029 133.6 372.929 132.1C371.829 130.6 370.929 128.9 370.229 127C369.529 124.7 369.179 122.7 369.179 121C369.179 114 371.379 108.4 375.779 104.2C380.179 100 385.829 97 392.729 95.2C401.829 93.4 406.579 91.75 406.979 90.25C407.279 89.15 407.429 87.3 407.429 84.7C407.429 79.4 404.729 76.75 399.329 76.75C397.029 76.75 394.979 77.5 393.179 79C391.379 80.4 390.479 82.2 390.479 84.4L391.379 88C391.179 89.7 389.379 90.7 385.979 91L384.329 91.15C381.329 91.15 378.929 90.4 377.129 88.9C375.429 87.4 374.579 85.4 374.579 82.9C374.579 81.3 375.079 79.55 376.079 77.65C377.179 75.65 378.529 74.05 380.129 72.85C381.729 71.65 384.179 70.6 387.479 69.7C390.879 68.7 394.129 68.2 397.229 68.2C400.329 68.2 402.729 68.3 404.429 68.5C406.129 68.7 408.429 69.2 411.329 70C414.329 70.7 416.779 72.1 418.679 74.2C420.679 76.3 421.729 78.55 421.829 80.95C422.029 83.25 422.129 86.6 422.129 91Z" fill="#0A1255"/>
<circle cx="432.5" cy="41.5" r="22.5" stroke="black"/>
<path d="M422.592 33.912L426.048 34.104C427.584 34.104 428.688 33.92 429.36 33.552C429.456 33.488 429.536 33.456 429.6 33.456C429.68 33.456 429.72 33.568 429.72 33.792C429.72 34.016 429.584 34.384 429.312 34.896C428.912 35.68 428.336 36.072 427.584 36.072L426.264 36.048C426.136 36.048 426.056 36.12 426.024 36.264C425.912 38.616 425.856 41.16 425.856 43.896C425.856 46.616 425.968 48.664 426.192 50.04V50.16C426.192 50.56 425.808 50.88 425.04 51.12C424.288 51.36 423.576 51.48 422.904 51.48C422.584 51.48 422.424 51.392 422.424 51.216C422.424 51.168 422.448 51.056 422.496 50.88C422.672 50.528 422.824 48.824 422.952 45.768C423.096 42.712 423.168 40.408 423.168 38.856L423.12 36.24C423.12 36.144 423.072 36.088 422.976 36.072C422.64 36.008 422.256 35.976 421.824 35.976C420.96 35.976 420.32 36.152 419.904 36.504C419.792 36.584 419.688 36.624 419.592 36.624C419.48 36.624 419.424 36.56 419.424 36.432C419.424 36.24 419.528 35.976 419.736 35.64C419.928 35.304 420.136 35.016 420.36 34.776C420.904 34.2 421.648 33.912 422.592 33.912ZM430.882 41.664L430.762 37.128C430.762 36.408 430.682 35.84 430.522 35.424C430.362 35.008 430.282 34.784 430.282 34.752C430.282 34.4 430.818 34.128 431.89 33.936C432.978 33.744 433.802 33.648 434.362 33.648C434.938 33.648 435.25 33.784 435.298 34.056C436.306 38.552 437.154 41.672 437.842 43.416C437.922 43.608 438.002 43.704 438.082 43.704C438.178 43.704 438.258 43.632 438.322 43.488C439.394 40.464 440.338 37.472 441.154 34.512C441.218 34.32 441.378 34.176 441.634 34.08C441.89 33.968 442.33 33.864 442.954 33.768C443.594 33.672 444.226 33.624 444.85 33.624C445.474 33.624 445.786 33.752 445.786 34.008C445.786 34.024 445.762 34.152 445.714 34.392C445.666 34.616 445.618 34.896 445.57 35.232C445.522 35.568 445.466 35.976 445.402 36.456C445.258 37.56 445.162 38.832 445.114 40.272C445.082 41.696 445.066 43.128 445.066 44.568L445.114 47.088C445.114 48.24 445.186 49.064 445.33 49.56C445.49 50.04 445.57 50.32 445.57 50.4C445.57 50.464 445.514 50.544 445.402 50.64C444.906 51.04 444.154 51.24 443.146 51.24C442.506 51.24 442.146 51.024 442.066 50.592C442.018 50.368 441.994 50.016 441.994 49.536C441.994 49.04 442.042 47.536 442.138 45.024C442.234 42.512 442.282 40.688 442.282 39.552C442.282 38.4 442.218 37.824 442.09 37.824C442.074 37.824 442.066 37.832 442.066 37.848C442.066 37.848 442.042 37.856 441.994 37.872C441.946 37.888 441.818 38.136 441.61 38.616C441.418 39.096 441.026 40.28 440.434 42.168C439.842 44.056 439.306 45.824 438.826 47.472C438.346 49.104 438.082 49.984 438.034 50.112C437.858 50.544 437.522 50.76 437.026 50.76C436.786 50.76 436.594 50.672 436.45 50.496C435.938 48.128 435.026 44.744 433.714 40.344L433.042 38.16C433.01 38.08 432.978 38.04 432.946 38.04C432.866 38.04 432.81 38.096 432.778 38.208C432.714 39.248 432.682 41.296 432.682 44.352C432.682 47.392 432.794 49.312 433.018 50.112C433.034 50.144 433.042 50.192 433.042 50.256C433.042 50.592 432.778 50.84 432.25 51C431.722 51.144 431.242 51.216 430.81 51.216C430.394 51.216 430.186 51.12 430.186 50.928C430.186 50.912 430.226 50.784 430.306 50.544C430.546 49.728 430.698 48.544 430.762 46.992C430.842 45.44 430.882 43.664 430.882 41.664Z" fill="#0A1255"/>
</svg>
